<svg height="60" preserveAspectRatio="xMidYMid" viewBox="0 0 120 60" width="120" xmlns="http://www.w3.org/2000/svg">
    <g fill="#1287b1" transform="matrix(1.1458335 0 0 1.1458344 -8.815396 -4.3756)">
        <path d="m20.688654 11.347938c-.493131-.504106-1.177826-.814542-1.940535-.814542-.760985 0-1.440077.310436-1.927031.814542h-.01274c-.491599.500256-.796711 1.198519-.796711 1.970077 0 .77614.305112 1.470017.796711 1.96535l.01274.01374c.486954.49972 1.166046.805819 1.927031.805819.762709 0 1.447404-.306099 1.940535-.805819l.0056-.01374c.49385-.495333.794892-1.18921.794892-1.96535 0-.771558-.301042-1.469821-.794892-1.970077zm-1.940535 38.119593c.762709 0 1.447404-.316187 1.940535-.810985l.0056-.01428c.49385-.493969.794892-1.19228.794892-1.959648 0-.775945-.301042-1.471137-.794892-1.973927h-.0056c-.493131-.508833-1.177826-.816443-1.940535-.816443-.760985 0-1.440077.30761-1.927031.816443h-.01274c-.491599.50279-.796711 1.197982-.796711 1.973927 0 .767368.305112 1.465679.796711 1.959648l.01274.01428c.486954.494798 1.166046.810985 1.927031.810985zm14.909558-8.437291c.677799-.181437 1.291567-.624041 1.666074-1.29355l.05052-.09786c.333177-.633934.394333-1.367041.216084-2.017301-.179591-.694656-.61942-1.310899-1.276051-1.694096l-.0385-.02646c-.639821-.357709-1.368097-.435586-2.037227-.249958-.680577.17286-1.292334.634129-1.664781 1.297936-.377331.659617-.456112 1.417871-.275755 2.115939.186678.686859.622964 1.307049 1.275476 1.694632h.0041c.653805.382855 1.393335.45118 2.080041.270718zm-12.102678-13.883525c-.718362-.728917-1.709702-1.185799-2.80688-1.185799-1.095694 0-2.084161.456882-2.801038 1.185799-.71501.728185-1.155557 1.732547-1.155557 2.849046s.440547 2.125246 1.155557 2.862009c.716877.72453 1.705344 1.177222 2.801038 1.177222 1.097178 0 2.088518-.452692 2.80688-1.177222.716303-.736763 1.15685-1.74551 1.15685-2.862009s-.440547-2.120861-1.15685-2.849046zm-1.578385-4.745876c1.592369.266917 3.022772 1.043057 4.115832 2.163747h.0084c.17394.176271.34309.370428.50022.564633l2.73241-1.608226c-.36761-1.129462-.384467-2.310339-.08927-3.418261.389496-1.482589 1.334429-2.810399 2.750752-3.642096l.04641-.03007c1.400998-.806599 2.993367-.974342 4.43081-.578182 1.455641.39694 2.768903 1.36285 3.586208 2.802018v.0042c.81376 1.43137.9786 3.074051.590589 4.55245-.387245 1.482785-1.335723 2.819172-2.750704 3.646531l-.373214.224031h-.03783c-1.309096.634128-2.747879.733302-4.06957.3792-1.085205-.292746-2.080616-.909574-2.860183-1.784108l-2.7281 1.603451c.313542.844514.486763 1.754087.486763 2.715612 0 .956602-.173221 1.879675-.486763 2.728331l2.7281 1.599308c.779567-.888277 1.774978-1.491362 2.860183-1.784692 1.45636-.404932 3.069849-.232852 4.480617.603815l.09051.04284v.0042c1.362446.841054 2.277256 2.13821 2.660191 3.603694.388011 1.470016.223171 3.113234-.590589 4.547479l-.04918.09995-.0057-.0086c-.817113 1.38283-2.10528 2.319452-3.527254 2.715611-1.458419.391189-3.072675.224031-4.481335-.600453v-.0114c-1.416323-.833061-2.361256-2.163697-2.750752-3.643656-.295199-1.102755-.278342-2.283632.08927-3.413094l-2.73241-1.604035c-.15713.194205-.32628.379785-.50022.556056l-.0084.0086c-1.09306 1.116499-2.523463 1.892639-4.115832 2.150978v3.212457c1.135012.24138 2.150824.818977 2.947009 1.629182l.0043.0085c1.067103 1.080728 1.727852 2.586369 1.727852 4.24177 0 1.649943-.660749 3.147007-1.727852 4.233437l-.0043.01691c-1.074766 1.085846-2.54851 1.758425-4.175504 1.758425-1.618375 0-3.096429-.672579-4.168369-1.758425h-.0043v-.01691c-1.068348-1.08643-1.730582-2.583494-1.730582-4.233437 0-1.655401.662234-3.161042 1.730582-4.24177v-.0085h.0043c.795419-.810205 1.81329-1.387802 2.944375-1.629182v-3.212457c-1.592561-.258339-3.020138-1.034479-4.111713-2.150978l-.01121-.0086c-1.36302-1.391944-2.216817-3.31012-2.216817-5.435366 0-2.120861.853797-4.039231 2.216817-5.431175h.01121c1.091575-1.12069 2.519152-1.89683 4.111713-2.163747v-3.198908c-1.131044-.249759-2.148915-.827356-2.944334-1.633369h-.0043v-.0086c-1.068348-1.090767-1.730582-2.58632-1.730582-4.241965 0-1.646872.662234-3.155486 1.730582-4.2417695l.0043-.00439c1.07194-1.0901825 2.549994-1.7622262 4.168369-1.7622262 1.626994 0 3.100738.6720437 4.175504 1.7622262v.00439h.0043c1.067103 1.0862835 1.727852 2.5948975 1.727852 4.2417695 0 1.655645-.660749 3.151198-1.727852 4.241965l-.0043.0086c-.796185.806013-1.811997 1.38361-2.947009 1.633373zm15.347137-2.133824-.02299-.03504c-.376757-.645873-.978026-1.077073-1.643086-1.262896-.686706-.185385-1.426236-.107751-2.08416.27642h.0041c-.656631.379054-1.095694.99944-1.279595 1.693901-.180357.689685-.101576 1.452131.275755 2.116133l.01255.01715c.378241.65523.980037 1.094958 1.652233 1.272009.674733.194157 1.427529.112137 2.075731-.272034l.0352-.01715c.638289-.387583 1.063511-.999976 1.240851-1.672555.181075-.693877.108664-1.452131-.266608-2.115939"/>
    </g>
    <g fill="#373535" transform="matrix(1.1458335 0 0 1.1458344 -8.815396 -4.3756)">
        <path d="m47.446878 21.206512h3.048729v9.470406l4.39652-4.94861h3.655506l-5.307739 5.733083 5.329768 7.267282h-3.490761l-4.583294-6.491337v6.491337h-3.048729z"/>
        <path d="m62.089158 32.284559c0 1.612612 1.139801 3.956968 3.88586 3.956968 1.699166 0 2.817417-.900997 3.397374-2.081679.303628-.573162.443469-1.185798.490402-1.823338.02107-.616779-.09339-1.25851-.351039-1.828066-.534462-1.2281-1.720717-2.29299-3.559245-2.29299-2.465419 0-3.863352 2.034455-3.863352 4.047613v.02149zm10.797941 6.444114h-3.050166v-1.870318c-.811749 1.512658-2.511394 2.271449-4.303947 2.271449-4.096101 0-6.492078-3.245986-6.492078-6.913765 0-4.095568 2.908409-6.889057 6.492078-6.889057 2.327015 0 3.746019 1.254904 4.303947 2.297961v-1.896635h3.050166z"/>
        <path d="m76.339069 28.120471h-1.579918v-2.392163h1.579918v-.732572c0-3.862715 2.886379-4.095567 5.074989-4.12125v2.387972c-.769606 0-2.024824 0-2.024824 1.82753v.63832h2.024824v2.392163h-2.024824v10.608202h-3.050165z"/>
        <path d="m83.487251 21.206512h3.047771v9.470406l4.397334-4.94861h3.655506l-5.307739 5.733083 5.328811 7.267282h-3.490762l-4.58315-6.491337v6.491337h-3.047771z"/>
        <path d="m98.129387 32.284559c0 1.612612 1.139322 3.956968 3.885863 3.956968 1.69677 0 2.81502-.900997 3.39593-2.081679.30459-.573162.44491-1.185798.49089-1.823338.0211-.616779-.0934-1.25851-.35152-1.828066-.53351-1.2281-1.71976-2.29299-3.55781-2.29299-2.465899 0-3.863353 2.034455-3.863353 4.047613v.02149zm10.796983 6.444114h-3.04921v-1.870318c-.81414 1.512658-2.51235 2.271449-4.30394 2.271449-4.096106 0-6.490167-3.245986-6.490167-6.913765 0-4.095568 2.907451-6.889057 6.490167-6.889057 2.32557 0 3.74601 1.254904 4.30394 2.297961v-1.896635h3.04921z"/>
    </g>
</svg>